<svg xmlns="http://www.w3.org/2000/svg" width="48" height="46" viewBox="0 0 48 46">
    <g fill="none" fill-rule="evenodd">
        <path stroke="#18D6B2" stroke-linecap="round" stroke-linejoin="round" d="M45.265 7.435l-2.079 7.864-7.916-4.142"/>
        <path stroke="#18D6B2" stroke-linecap="round" stroke-linejoin="round" d="M14.565 3.685A20.052 20.052 0 0 1 24.618 1c6.35 0 12 2.932 15.641 7.495 0 0 2.788 3.518 2.864 6.09M1 38.178l2.954-7.15 7.041 4.298"/>
        <path stroke="#18D6B2" stroke-linecap="round" stroke-linejoin="round" d="M33.842 41.734a20.49 20.49 0 0 1-10.521 2.878c-6.435 0-12.164-2.93-15.85-7.495 0 0-2.825-3.52-2.901-6.089"/>
        <path stroke="#000" stroke-linecap="round" stroke-linejoin="round" d="M46.693 7.435l-2.079 7.864-7.916-4.142"/>
        <path stroke="#000" stroke-linecap="round" stroke-linejoin="round" d="M15.993 3.685A20.052 20.052 0 0 1 26.046 1c6.349 0 12 2.932 15.641 7.495 0 0 2.788 3.518 2.864 6.09M1.714 38.178l2.954-7.15 7.041 4.298"/>
        <path stroke="#000" stroke-linecap="round" stroke-linejoin="round" d="M34.556 41.734a20.49 20.49 0 0 1-10.521 2.878c-6.435 0-12.164-2.93-15.85-7.495 0 0-2.825-3.52-2.901-6.089"/>
        <path fill="#FFF" d="M24.328 14.453v2.01a6.095 6.095 0 0 1 1.953.981l.006-.007.415-.502a5.925 5.925 0 0 0-1.13-.472v-.008l-.002-2.002c0-.322-.216-.584-.481-.584h-1.242c.265 0 .48.262.48.584M19.25 16.729a8.877 8.877 0 0 1 1.027-.457l-.941-.819a.663.663 0 0 0-.85 0l-.351.306 1.116.97zM30.92 17.273a.598.598 0 0 1 0 .797l-1.267 1.376c.396.7.694 1.469.875 2.288h1.342a8.286 8.286 0 0 0-.875-2.288l1.268-1.376a.598.598 0 0 0-.001-.797l-1.665-1.807a.488.488 0 0 0-.735 0l-.304.329 1.362 1.478zM21.057 23.521c0-1.542 1.196-2.83 2.79-3.143a3.898 3.898 0 0 0-.749-.074c-1.951 0-3.535 1.442-3.535 3.217 0 1.776 1.584 3.217 3.535 3.217.257 0 .506-.027.749-.074-1.594-.314-2.79-1.6-2.79-3.143M19.25 29.598l-1.115.972.35.306a.668.668 0 0 0 .85 0l.942-.821a8.879 8.879 0 0 1-1.026-.457M33.958 21.734h-1.544c.331 0 .598.247.598.547l-.001 2.48c0 .303-.267.548-.597.548h1.544c.33 0 .598-.245.597-.547V22.28c0-.3-.266-.547-.597-.547M26.288 29.608l-.007-.01a6.136 6.136 0 0 1-1.952.981v.01l-.002 2c0 .326-.215.584-.48.584h1.242c.266 0 .482-.258.48-.583l.003-2.002v-.009a5.967 5.967 0 0 0 1.13-.47l-.414-.501zM30.995 27.597c.396-.7.694-1.468.875-2.288h-1.333a8.561 8.561 0 0 1-.883 2.288l1.267 1.376a.6.6 0 0 1 0 .798l-1.363 1.478.304.33a.492.492 0 0 0 .734 0l1.666-1.808a.6.6 0 0 0 0-.798l-1.267-1.376z"/>
        <path stroke="#000" stroke-linecap="round" stroke-linejoin="round" d="M24.202 26.785a3.262 3.262 0 0 1-3.257-3.263 3.262 3.262 0 0 1 3.257-3.265c1.8 0 3.26 1.463 3.26 3.265 0 1.8-1.46 3.263-3.26 3.263zm9.107-5.009h-1.83a7.731 7.731 0 0 0-.904-2.166l1.3-1.303a.534.534 0 0 0-.001-.754l-1.71-1.712a.531.531 0 0 0-.754 0l-1.293 1.295c-.008.006-1.396-.707-2.17-.892l-.002-1.84a.534.534 0 0 0-.533-.535h-2.418a.534.534 0 0 0-.533.534v1.833a7.653 7.653 0 0 0-2.164.906l-1.3-1.3a.531.531 0 0 0-.755 0l-1.709 1.71a.531.531 0 0 0 0 .755l1.3 1.303a7.417 7.417 0 0 0-.897 2.166h-1.839a.534.534 0 0 0-.532.534v2.422c0 .296.238.534.532.534h1.83c.194.778.499 1.504.905 2.167l-1.3 1.303a.535.535 0 0 0 .001.756l1.71 1.711a.533.533 0 0 0 .754 0l1.3-1.302c.66.406 1.388.713 2.162.897l.001 1.841a.533.533 0 0 0 .534.534h2.418a.531.531 0 0 0 .532-.534l.003-1.833a7.675 7.675 0 0 0 2.162-.905l1.301 1.302a.532.532 0 0 0 .753 0l1.71-1.711a.536.536 0 0 0 0-.756l-1.3-1.303c.406-.663.712-1.39.898-2.167h1.838a.531.531 0 0 0 .532-.534V22.31a.534.534 0 0 0-.532-.534z"/>
    </g>
</svg>
